name rise43.5482peak65.4966fall89.1036.mot
datacolumns 19
datarows 27
range 15.79159900000000 15.83493300000000
endheader
time	ground_force1_vx	ground_force1_vy	ground_force1_vz	ground_force1_px	ground_force1_py	ground_force1_pz	ground_force2_vx	ground_force2_vy	ground_force2_vz	ground_force2_px	ground_force2_py	ground_force2_pz	ground_torque1_x	ground_torque1_y	ground_torque1_z	ground_torque2_x	ground_torque2_y	ground_torque2_z	
15.79159900000000	58.36938500000000	773.09824300000002	58.60389300000000	0.29310100000000	0.00000000000000	0.10455400000000	0.00000000000000	0.00000000000000	0.00000000000000	0.00000000000000	0.00000000000000	0.00000000000000	0.00000000000000	21.62910000000000	0.00000000000000	0.00000000000000	0.00000000000000	0.00000000000000	
15.79327000000000	57.70885500000000	776.68628400000000	58.69862900000000	0.29212700000000	0.00000000000000	0.10458900000000	0.00000000000000	0.00000000000000	0.00000000000000	0.00000000000000	0.00000000000000	0.00000000000000	0.00000000000000	21.66903800000000	0.00000000000000	0.00000000000000	0.00000000000000	0.00000000000000	
15.79494400000000	57.03854700000000	780.10697700000003	58.79011500000000	0.29115100000000	0.00000000000000	0.10462700000000	0.00000000000000	0.00000000000000	0.00000000000000	0.00000000000000	0.00000000000000	0.00000000000000	0.00000000000000	21.70914200000000	0.00000000000000	0.00000000000000	0.00000000000000	0.00000000000000	
15.79660100000000	56.35934600000000	783.35855000000004	58.87825800000000	0.29017200000000	0.00000000000000	0.10467000000000	0.00000000000000	0.00000000000000	0.00000000000000	0.00000000000000	0.00000000000000	0.00000000000000	0.00000000000000	21.74926000000000	0.00000000000000	0.00000000000000	0.00000000000000	0.00000000000000	
15.79826700000000	55.67211000000000	786.43947600000001	58.96291300000000	0.28918800000000	0.00000000000000	0.10471500000000	0.00000000000000	0.00000000000000	0.00000000000000	0.00000000000000	0.00000000000000	0.00000000000000	0.00000000000000	21.78921600000000	0.00000000000000	0.00000000000000	0.00000000000000	0.00000000000000	
15.79995500000000	54.97767100000000	789.34847500000001	59.04388700000000	0.28820100000000	0.00000000000000	0.10476500000000	0.00000000000000	0.00000000000000	0.00000000000000	0.00000000000000	0.00000000000000	0.00000000000000	0.00000000000000	21.82880400000000	0.00000000000000	0.00000000000000	0.00000000000000	0.00000000000000	
15.80159800000000	54.27683400000000	792.08452699999998	59.12094500000000	0.28720900000000	0.00000000000000	0.10481800000000	0.00000000000000	0.00000000000000	0.00000000000000	0.00000000000000	0.00000000000000	0.00000000000000	0.00000000000000	21.86780100000000	0.00000000000000	0.00000000000000	0.00000000000000	0.00000000000000	
15.80327100000000	53.57037700000000	794.64687500000002	59.19381100000000	0.28621100000000	0.00000000000000	0.10487400000000	0.00000000000000	0.00000000000000	0.00000000000000	0.00000000000000	0.00000000000000	0.00000000000000	0.00000000000000	21.90596200000000	0.00000000000000	0.00000000000000	0.00000000000000	0.00000000000000	
15.80495700000000	52.85905500000000	797.03503200000000	59.26217900000000	0.28520600000000	0.00000000000000	0.10493400000000	0.00000000000000	0.00000000000000	0.00000000000000	0.00000000000000	0.00000000000000	0.00000000000000	0.00000000000000	21.94302400000000	0.00000000000000	0.00000000000000	0.00000000000000	0.00000000000000	
15.80660200000000	52.14359900000000	799.24878500000000	59.32571100000000	0.28419500000000	0.00000000000000	0.10499700000000	0.00000000000000	0.00000000000000	0.00000000000000	0.00000000000000	0.00000000000000	0.00000000000000	0.00000000000000	21.97871300000000	0.00000000000000	0.00000000000000	0.00000000000000	0.00000000000000	
15.80826900000000	51.42471600000000	801.28819799999997	59.38404700000000	0.28317700000000	0.00000000000000	0.10506400000000	0.00000000000000	0.00000000000000	0.00000000000000	0.00000000000000	0.00000000000000	0.00000000000000	0.00000000000000	22.01274300000000	0.00000000000000	0.00000000000000	0.00000000000000	0.00000000000000	
15.80995300000000	50.70309000000000	803.15361600000006	59.43681000000000	0.28215100000000	0.00000000000000	0.10513400000000	0.00000000000000	0.00000000000000	0.00000000000000	0.00000000000000	0.00000000000000	0.00000000000000	0.00000000000000	22.04482200000000	0.00000000000000	0.00000000000000	0.00000000000000	0.00000000000000	
15.81159700000000	49.97938400000000	804.84566500000005	59.48361000000000	0.28111700000000	0.00000000000000	0.10520800000000	0.00000000000000	0.00000000000000	0.00000000000000	0.00000000000000	0.00000000000000	0.00000000000000	0.00000000000000	22.07465100000000	0.00000000000000	0.00000000000000	0.00000000000000	0.00000000000000	
15.81327000000000	49.25424200000000	806.36525600000004	59.52404900000000	0.28007400000000	0.00000000000000	0.10528500000000	0.00000000000000	0.00000000000000	0.00000000000000	0.00000000000000	0.00000000000000	0.00000000000000	0.00000000000000	22.10193100000000	0.00000000000000	0.00000000000000	0.00000000000000	0.00000000000000	
15.81493300000000	48.52828600000000	807.71357899999998	59.55772800000000	0.27902200000000	0.00000000000000	0.10536500000000	0.00000000000000	0.00000000000000	0.00000000000000	0.00000000000000	0.00000000000000	0.00000000000000	0.00000000000000	22.12636500000000	0.00000000000000	0.00000000000000	0.00000000000000	0.00000000000000	
15.81660100000000	47.80212100000000	808.89210700000001	59.58425000000000	0.27796000000000	0.00000000000000	0.10544900000000	0.00000000000000	0.00000000000000	0.00000000000000	0.00000000000000	0.00000000000000	0.00000000000000	0.00000000000000	22.14765700000000	0.00000000000000	0.00000000000000	0.00000000000000	0.00000000000000	
15.81826900000000	47.07633100000000	809.90259300000002	59.60322700000000	0.27689000000000	0.00000000000000	0.10553500000000	0.00000000000000	0.00000000000000	0.00000000000000	0.00000000000000	0.00000000000000	0.00000000000000	0.00000000000000	22.16552300000000	0.00000000000000	0.00000000000000	0.00000000000000	0.00000000000000	
15.81993500000000	46.35148600000000	810.74706100000003	59.61428400000000	0.27580900000000	0.00000000000000	0.10562500000000	0.00000000000000	0.00000000000000	0.00000000000000	0.00000000000000	0.00000000000000	0.00000000000000	0.00000000000000	22.17968200000000	0.00000000000000	0.00000000000000	0.00000000000000	0.00000000000000	
15.82160200000000	45.62813800000000	811.42781100000002	59.61706200000000	0.27471900000000	0.00000000000000	0.10571700000000	0.00000000000000	0.00000000000000	0.00000000000000	0.00000000000000	0.00000000000000	0.00000000000000	0.00000000000000	22.18987100000000	0.00000000000000	0.00000000000000	0.00000000000000	0.00000000000000	
15.82326800000000	44.90682100000000	811.94740500000000	59.61122600000000	0.27361900000000	0.00000000000000	0.10581300000000	0.00000000000000	0.00000000000000	0.00000000000000	0.00000000000000	0.00000000000000	0.00000000000000	0.00000000000000	22.19583800000000	0.00000000000000	0.00000000000000	0.00000000000000	0.00000000000000	
15.82493900000000	44.18805700000000	812.30866500000002	59.59646300000000	0.27250800000000	0.00000000000000	0.10591100000000	0.00000000000000	0.00000000000000	0.00000000000000	0.00000000000000	0.00000000000000	0.00000000000000	0.00000000000000	22.19734600000000	0.00000000000000	0.00000000000000	0.00000000000000	0.00000000000000	
15.82660500000000	43.47234900000000	812.51466800000003	59.57249100000000	0.27138800000000	0.00000000000000	0.10601200000000	0.00000000000000	0.00000000000000	0.00000000000000	0.00000000000000	0.00000000000000	0.00000000000000	0.00000000000000	22.19417900000000	0.00000000000000	0.00000000000000	0.00000000000000	0.00000000000000	
15.82826900000000	42.76019000000000	812.56873199999995	59.53906100000000	0.27025800000000	0.00000000000000	0.10611500000000	0.00000000000000	0.00000000000000	0.00000000000000	0.00000000000000	0.00000000000000	0.00000000000000	0.00000000000000	22.18614000000000	0.00000000000000	0.00000000000000	0.00000000000000	0.00000000000000	
15.82994200000000	42.05205400000000	812.47441200000003	59.49595800000000	0.26911900000000	0.00000000000000	0.10622100000000	0.00000000000000	0.00000000000000	0.00000000000000	0.00000000000000	0.00000000000000	0.00000000000000	0.00000000000000	22.17305400000000	0.00000000000000	0.00000000000000	0.00000000000000	0.00000000000000	
15.83159900000000	41.34840400000000	812.23549100000002	59.44300400000000	0.26797000000000	0.00000000000000	0.10632900000000	0.00000000000000	0.00000000000000	0.00000000000000	0.00000000000000	0.00000000000000	0.00000000000000	0.00000000000000	22.15476600000000	0.00000000000000	0.00000000000000	0.00000000000000	0.00000000000000	
15.83327100000000	40.64968800000000	811.85596399999997	59.38006400000000	0.26681300000000	0.00000000000000	0.10644000000000	0.00000000000000	0.00000000000000	0.00000000000000	0.00000000000000	0.00000000000000	0.00000000000000	0.00000000000000	22.13114900000000	0.00000000000000	0.00000000000000	0.00000000000000	0.00000000000000	
15.83493300000000	39.95633800000000	811.34003399999995	59.30704100000000	0.26564600000000	0.00000000000000	0.10655200000000	0.00000000000000	0.00000000000000	0.00000000000000	0.00000000000000	0.00000000000000	0.00000000000000	0.00000000000000	22.10209700000000	0.00000000000000	0.00000000000000	0.00000000000000	0.00000000000000	
